<svg width="768" height="684" viewBox="0 0 768 684" fill="none" xmlns="http://www.w3.org/2000/svg">
<path fill-rule="evenodd" clip-rule="evenodd" d="M361.01 9.19534C373.887 -3.06499 394.113 -3.06499 406.99 9.19534L673.657 263.164L756.99 342.53C770.32 355.223 770.833 376.323 758.137 389.657C745.443 402.987 724.343 403.5 711.01 390.803L684 365.08V616.667C684 653.487 654.153 683.333 617.333 683.333H450.667H317.333H150.667C113.848 683.333 83.9999 653.487 83.9999 616.667V365.08L56.9886 390.803C43.6572 403.5 22.5582 402.987 9.86197 389.657C-2.83423 376.323 -2.31963 355.223 11.0114 342.53L94.3446 263.164L361.01 9.19534ZM150.667 301.587V616.667H284V450C284 394.77 328.77 350 384 350C439.23 350 484 394.77 484 450V616.667H617.333V301.587L384 79.365L150.667 301.587ZM417.333 616.667V450C417.333 431.59 402.41 416.667 384 416.667C365.59 416.667 350.667 431.59 350.667 450V616.667H417.333Z" fill="white"/>
</svg>
